# xmcd
#
# Track frame offsets:
#	150
#	17596
#	39586
#	60760
#	89965
#	126198
#	162903
#	190710
#	216321
#	246673
#	283839
#
# Disc length: 4255 seconds
#
# Revision: 1
# Processed by: cddbd v1.5.2PL0 Copyright (c) Steve Scherf et al.
# Submitted via: audiograbber 1.83.01
#
DISCID=a1109d0b
DTITLE=Marcia Willett - Ein Paradies in Cornwall - CD 3
DYEAR=2007
DGENRE=Hörbuch
TTITLE0=3 - 01 - Ein Paradies in Cornwall
TTITLE1=3 - 02 - Ein Paradies in Cornwall
TTITLE2=3 - 03 - Ein Paradies in Cornwall
TTITLE3=3 - 04 - Ein Paradies in Cornwall
TTITLE4=3 - 05 - Ein Paradies in Cornwall
TTITLE5=3 - 06 - Ein Paradies in Cornwall
TTITLE6=3 - 07 - Ein Paradies in Cornwall
TTITLE7=3 - 08 - Ein Paradies in Cornwall
TTITLE8=3 - 09 - Ein Paradies in Cornwall
TTITLE9=3 - 10 - Ein Paradies in Cornwall
TTITLE10=3 - 12 - Ein Paradies in Cornwall
EXTD=
EXTT0=
EXTT1=
EXTT2=
EXTT3=
EXTT4=
EXTT5=
EXTT6=
EXTT7=
EXTT8=
EXTT9=
EXTT10=
PLAYORDER=
